<svg aria-hidden="true" style="position: absolute; width: 0; height: 0; overflow: hidden;" version="1.1" xmlns="http://www.w3.org/2000/svg" xmlns:xlink="http://www.w3.org/1999/xlink">
<defs>
<symbol id="icon-whatsapp" viewBox="0 0 16 16">
<path d="M13.641 2.325c-1.497-1.5-3.488-2.325-5.609-2.325-4.369 0-7.925 3.556-7.925 7.928 0 1.397 0.366 2.763 1.059 3.963l-1.125 4.109 4.203-1.103c1.159 0.631 2.463 0.966 3.787 0.966h0.003c0 0 0 0 0 0 4.369 0 7.928-3.556 7.928-7.928 0-2.119-0.825-4.109-2.322-5.609zM8.034 14.525v0c-1.184 0-2.344-0.319-3.356-0.919l-0.241-0.144-2.494 0.653 0.666-2.431-0.156-0.25c-0.663-1.047-1.009-2.259-1.009-3.506 0-3.634 2.956-6.591 6.594-6.591 1.759 0 3.416 0.688 4.659 1.931 1.244 1.247 1.928 2.9 1.928 4.662-0.003 3.637-2.959 6.594-6.591 6.594zM11.647 9.588c-0.197-0.1-1.172-0.578-1.353-0.644s-0.313-0.1-0.447 0.1c-0.131 0.197-0.512 0.644-0.628 0.778-0.116 0.131-0.231 0.15-0.428 0.050s-0.838-0.309-1.594-0.984c-0.588-0.525-0.987-1.175-1.103-1.372s-0.013-0.306 0.088-0.403c0.091-0.088 0.197-0.231 0.297-0.347s0.131-0.197 0.197-0.331c0.066-0.131 0.034-0.247-0.016-0.347s-0.447-1.075-0.609-1.472c-0.159-0.388-0.325-0.334-0.447-0.341-0.116-0.006-0.247-0.006-0.378-0.006s-0.347 0.050-0.528 0.247c-0.181 0.197-0.694 0.678-0.694 1.653s0.709 1.916 0.809 2.050c0.1 0.131 1.397 2.134 3.384 2.991 0.472 0.203 0.841 0.325 1.128 0.419 0.475 0.15 0.906 0.128 1.247 0.078 0.381-0.056 1.172-0.478 1.338-0.941s0.166-0.859 0.116-0.941c-0.047-0.088-0.178-0.137-0.378-0.238z"></path>
</symbol>
<symbol id="icon-telegram" viewBox="0 0 16 16">
<path d="M8 0c-4.419 0-8 3.581-8 8s3.581 8 8 8 8-3.581 8-8-3.581-8-8-8zM11.931 5.484l-1.313 6.184c-0.091 0.441-0.356 0.544-0.725 0.341l-2-1.478-0.959 0.934c-0.112 0.109-0.2 0.2-0.4 0.2-0.259 0-0.216-0.097-0.303-0.344l-0.681-2.237-1.978-0.616c-0.428-0.131-0.431-0.425 0.097-0.634l7.706-2.975c0.35-0.159 0.691 0.084 0.556 0.625z"></path>
</symbol>
<symbol id="icon-mail" viewBox="0 0 16 16">
<path d="M13.333 0h-10.666c-1.467 0-2.667 1.2-2.667 2.667v10.666c0 1.467 1.2 2.667 2.667 2.667h10.666c1.468 0 2.667-1.2 2.667-2.667v-10.666c0-1.467-1.199-2.667-2.667-2.667zM4 4h8c0.143 0 0.281 0.031 0.409 0.088l-4.409 5.143-4.409-5.143c0.127-0.058 0.266-0.088 0.409-0.088zM3 11v-6c0-0.021 0.001-0.042 0.002-0.063l2.932 3.421-2.9 2.9c-0.023-0.083-0.034-0.17-0.034-0.258zM12 12h-8c-0.088 0-0.175-0.012-0.258-0.034l2.846-2.846 1.413 1.648 1.413-1.648 2.846 2.846c-0.083 0.023-0.17 0.034-0.258 0.034zM13 11c0 0.088-0.012 0.175-0.034 0.258l-2.9-2.9 2.932-3.421c0.001 0.021 0.002 0.042 0.002 0.063v6z"></path>
</symbol>
<symbol id="icon-mail4" viewBox="0 0 16 16">
<path d="M8 0c-4.418 0-8 3.582-8 8s3.582 8 8 8 8-3.582 8-8-3.582-8-8-8zM4 4h8c0.143 0 0.281 0.031 0.409 0.088l-4.409 5.143-4.409-5.143c0.127-0.058 0.266-0.088 0.409-0.088zM3 11v-6c0-0.021 0.001-0.042 0.002-0.063l2.932 3.421-2.9 2.9c-0.023-0.083-0.034-0.17-0.034-0.258zM12 12h-8c-0.088 0-0.175-0.012-0.258-0.034l2.846-2.846 1.413 1.648 1.413-1.648 2.846 2.846c-0.083 0.023-0.17 0.034-0.258 0.034zM13 11c0 0.088-0.012 0.175-0.034 0.258l-2.9-2.9 2.932-3.421c0.001 0.021 0.002 0.042 0.002 0.063v6z"></path>
</symbol>
<symbol id="icon-linkedin" viewBox="0 0 16 16">
<path d="M14.5 0h-13c-0.825 0-1.5 0.675-1.5 1.5v13c0 0.825 0.675 1.5 1.5 1.5h13c0.825 0 1.5-0.675 1.5-1.5v-13c0-0.825-0.675-1.5-1.5-1.5zM6 13h-2v-7h2v7zM5 5c-0.553 0-1-0.447-1-1s0.447-1 1-1c0.553 0 1 0.447 1 1s-0.447 1-1 1zM13 13h-2v-4c0-0.553-0.447-1-1-1s-1 0.447-1 1v4h-2v-7h2v1.241c0.412-0.566 1.044-1.241 1.75-1.241 1.244 0 2.25 1.119 2.25 2.5v4.5z"></path>
</symbol>
<symbol id="icon-github" viewBox="0 0 16 16">
<path d="M8 0.198c-4.418 0-8 3.582-8 8 0 3.535 2.292 6.533 5.471 7.591 0.4 0.074 0.547-0.174 0.547-0.385 0-0.191-0.008-0.821-0.011-1.489-2.226 0.484-2.695-0.944-2.695-0.944-0.364-0.925-0.888-1.171-0.888-1.171-0.726-0.497 0.055-0.486 0.055-0.486 0.803 0.056 1.226 0.824 1.226 0.824 0.714 1.223 1.872 0.869 2.328 0.665 0.072-0.517 0.279-0.87 0.508-1.070-1.777-0.202-3.645-0.888-3.645-3.954 0-0.873 0.313-1.587 0.824-2.147-0.083-0.202-0.357-1.015 0.077-2.117 0 0 0.672-0.215 2.201 0.82 0.638-0.177 1.322-0.266 2.002-0.269 0.68 0.003 1.365 0.092 2.004 0.269 1.527-1.035 2.198-0.82 2.198-0.82 0.435 1.102 0.162 1.916 0.079 2.117 0.513 0.56 0.823 1.274 0.823 2.147 0 3.073-1.872 3.749-3.653 3.947 0.287 0.248 0.543 0.735 0.543 1.481 0 1.070-0.009 1.932-0.009 2.195 0 0.213 0.144 0.462 0.55 0.384 3.177-1.059 5.466-4.057 5.466-7.59 0-4.418-3.582-8-8-8z"></path>
</symbol>
<symbol id="icon-radio-checked" viewBox="0 0 32 32">
<path d="M16 0c-8.837 0-16 7.163-16 16s7.163 16 16 16 16-7.163 16-16-7.163-16-16-16zM16 28c-6.627 0-12-5.373-12-12s5.373-12 12-12c6.627 0 12 5.373 12 12s-5.373 12-12 12zM10 16c0-3.314 2.686-6 6-6s6 2.686 6 6c0 3.314-2.686 6-6 6s-6-2.686-6-6z"></path>
</symbol>
</defs>
</svg>
